<svg width="368" height="298" viewBox="0 0 368 298" fill="none" xmlns="http://www.w3.org/2000/svg">
<path d="M136.079 13.3043C134.438 13.3056 132.864 13.9587 131.705 15.1198L81.3175 65.5103C28.5859 118.235 28.5859 203.725 81.3175 256.453C134.049 309.181 219.528 309.184 272.256 256.453L322.65 206.059C323.225 205.485 323.68 204.803 323.99 204.053C324.301 203.303 324.46 202.499 324.459 201.688V16.8073C324.459 16.3475 324.369 15.892 324.193 15.467C324.018 15.0421 323.76 14.6559 323.435 14.3305C323.11 14.0052 322.724 13.7471 322.299 13.571C321.875 13.395 321.419 13.3043 320.959 13.3043H136.079Z" fill="#45E0A8" stroke="white" stroke-width="2" stroke-miterlimit="10"/>
<path d="M50.0846 233.004L34.022 234.667V241.583C34.0261 242.62 34.3769 243.626 35.0186 244.44C35.6602 245.255 36.5559 245.832 37.563 246.078L231.618 293.799C232.864 294.102 234.163 294.112 235.413 293.828C236.663 293.544 237.831 292.974 238.824 292.164L250.616 282.512L50.0846 233.004Z" fill="white"/>
<path d="M238.814 292.174L329.76 217.726C330.833 216.85 331.697 215.746 332.291 214.494C332.884 213.242 333.191 211.874 333.19 210.488V203.714L321.865 204.886L234.903 276.354V293.924C236.338 293.695 237.687 293.091 238.814 292.174V292.174Z" fill="#45E0A8"/>
<path d="M231.728 281.427L35.3118 236.036C34.9742 235.959 34.6685 235.78 34.4362 235.523C34.2038 235.267 34.0561 234.945 34.0131 234.601C33.97 234.257 34.0338 233.909 34.1956 233.603C34.3574 233.297 34.6094 233.048 34.9176 232.89L143.413 177.032C145.423 175.997 147.702 175.605 149.942 175.908L330.528 200.298C331.127 200.379 331.688 200.635 332.143 201.033C332.598 201.431 332.926 201.954 333.086 202.536C333.246 203.119 333.232 203.736 333.045 204.311C332.857 204.885 332.505 205.392 332.032 205.768L238.738 279.832C237.764 280.607 236.628 281.152 235.415 281.428C234.201 281.704 232.941 281.703 231.728 281.427V281.427Z" fill="white" stroke="black" stroke-width="1.2" stroke-linecap="round" stroke-linejoin="round"/>
<path d="M333.201 203.714V210.488C333.202 211.874 332.894 213.242 332.301 214.494C331.708 215.746 330.843 216.85 329.77 217.726L238.824 292.174C237.831 292.985 236.663 293.555 235.413 293.838C234.163 294.122 232.864 294.112 231.618 293.81L37.563 246.089C36.5559 245.842 35.6602 245.265 35.0186 244.451C34.3769 243.636 34.0261 242.63 34.022 241.593V234.677" stroke="black" stroke-width="1.2" stroke-linecap="round" stroke-linejoin="round"/>
<path d="M325.123 211.263L131.75 183.039L143.413 177.032C145.423 175.997 147.702 175.605 149.942 175.908L330.528 200.298C331.127 200.379 331.688 200.635 332.143 201.033C332.598 201.431 332.926 201.954 333.086 202.536C333.246 203.119 333.232 203.736 333.045 204.311C332.857 204.885 332.505 205.392 332.032 205.768L325.123 211.263Z" fill="black"/>
<path d="M154.42 181.334C152.814 182.096 151.032 182.411 149.261 182.247C147.771 182.036 147.67 181.285 149.022 180.577C150.62 179.825 152.389 179.511 154.147 179.667C155.641 179.875 155.766 180.618 154.42 181.334Z" fill="white"/>
<path d="M163.553 182.617C161.935 183.392 160.135 183.711 158.349 183.54C156.831 183.326 156.699 182.561 158.048 181.842C159.662 181.073 161.455 180.756 163.235 180.926C164.736 181.137 164.895 181.89 163.553 182.617Z" fill="#45E0A8"/>
<path d="M172.873 183.924C171.242 184.713 169.426 185.038 167.623 184.861C166.074 184.64 165.894 183.865 167.253 183.132C168.874 182.353 170.678 182.032 172.468 182.205C174.021 182.423 174.207 183.191 172.873 183.924Z" fill="#45E0A8"/>
<path d="M161.122 225.054L92.5076 212.204L132.88 190.895L200.25 201.314L161.122 225.054Z" fill="#45E0A8" stroke="#45E0A8" stroke-width="1.2" stroke-linecap="round" stroke-linejoin="round"/>
<path d="M103.39 225.821L145.817 234.338" stroke="black" stroke-width="1.2" stroke-linecap="round" stroke-linejoin="round"/>
<path d="M76.8186 220.486L94.0465 223.944" stroke="black" stroke-width="1.2" stroke-linecap="round" stroke-linejoin="round"/>
<path d="M118.267 238.568L133.52 241.801" stroke="black" stroke-width="1.2" stroke-linecap="round" stroke-linejoin="round"/>
<path d="M64.2556 227.118L111.849 237.205" stroke="black" stroke-width="1.2" stroke-linecap="round" stroke-linejoin="round"/>
<path d="M147.912 217.194L143.279 199.36L101.295 206.263" stroke="white" stroke-width="1.2" stroke-linecap="round" stroke-linejoin="round"/>
<path d="M172.063 220.171L169.995 209.738L147.069 213.943" stroke="white" stroke-width="1.2" stroke-linecap="round" stroke-linejoin="round"/>
<path d="M180.909 205.485C179.135 206.522 175.971 207.117 173.865 206.771C171.759 206.425 171.527 205.294 173.308 204.25C175.089 203.206 178.201 202.649 180.29 202.981C182.379 203.313 182.676 204.419 180.909 205.485Z" fill="white"/>
<path d="M260.738 243.706L177.032 228.031L215.776 203.714L296.929 216.263L260.738 243.706Z" fill="#45E0A8" stroke="#45E0A8" stroke-width="1.2" stroke-linecap="round" stroke-linejoin="round"/>
<path d="M218.927 249.018L246.442 254.544" stroke="black" stroke-width="1.2" stroke-linecap="round" stroke-linejoin="round"/>
<path d="M161.852 237.558L210.392 247.306" stroke="black" stroke-width="1.2" stroke-linecap="round" stroke-linejoin="round"/>
<path d="M187.559 253.254L234.903 263.293" stroke="black" stroke-width="1.2" stroke-linecap="round" stroke-linejoin="round"/>
<path d="M149.645 245.218L179.685 251.587" stroke="black" stroke-width="1.2" stroke-linecap="round" stroke-linejoin="round"/>
<path d="M242.528 234.342L230.698 213.549L185.052 221.201" stroke="white" stroke-width="1.2" stroke-linecap="round" stroke-linejoin="round"/>
<path d="M271.575 238.059L265.243 225.821L240.363 230.535" stroke="white" stroke-width="1.2" stroke-linecap="round" stroke-linejoin="round"/>
<path d="M276.219 220.935C274.57 222.149 271.143 222.795 268.581 222.374C266.018 221.952 265.333 220.645 266.993 219.438C268.653 218.231 272.021 217.615 274.556 218.02C277.091 218.425 277.855 219.732 276.219 220.935Z" fill="white"/>
<path d="M234.934 204.499C231.026 198.894 216.143 194.723 198.368 194.723C180.594 194.723 165.714 198.894 161.807 204.499H160.793V207.421C160.793 214.431 177.617 220.116 198.368 220.116C219.12 220.116 235.944 214.431 235.944 207.421V204.499H234.934Z" fill="black" stroke="black" stroke-width="1.2" stroke-linecap="round" stroke-linejoin="round"/>
<path d="M198.365 217.19C219.117 217.19 235.94 211.507 235.94 204.496C235.94 197.485 219.117 191.801 198.365 191.801C177.613 191.801 160.79 197.485 160.79 204.496C160.79 211.507 177.613 217.19 198.365 217.19Z" fill="white" stroke="black" stroke-width="1.2" stroke-linecap="round" stroke-linejoin="round"/>
<path d="M212.488 196.048C212.452 195.951 212.41 195.856 212.363 195.764L207.961 185.687L190.491 186.535L188.807 185.687L184.388 195.757C184.338 195.85 184.296 195.947 184.263 196.048V196.048C184.197 196.227 184.164 196.417 184.163 196.608C184.163 199.26 190.529 201.411 198.382 201.411C206.235 201.411 212.605 199.26 212.605 196.608C212.599 196.416 212.559 196.226 212.488 196.048Z" fill="#45E0A8" stroke="black" stroke-width="1.2" stroke-linecap="round" stroke-linejoin="round"/>
<path d="M198.365 189.349C203.695 189.349 208.016 187.889 208.016 186.088C208.016 184.287 203.695 182.828 198.365 182.828C193.035 182.828 188.714 184.287 188.714 186.088C188.714 187.889 193.035 189.349 198.365 189.349Z" fill="white" stroke="black" stroke-width="1.2" stroke-linecap="round" stroke-linejoin="round"/>
<path d="M201.014 169.611H195.72L193.617 186.092C193.617 186.739 195.744 187.261 198.365 187.261C200.986 187.261 203.12 186.739 203.12 186.092L201.014 169.611Z" fill="#45E0A8" stroke="black" stroke-width="1.2" stroke-linecap="round" stroke-linejoin="round"/>
<path d="M201.01 169.608L193.617 186.089L195.72 169.608H201.01Z" fill="black"/>
<path d="M257.248 2L139.485 155.858" stroke="black" stroke-width="1.2" stroke-linecap="round" stroke-linejoin="round"/>
<path d="M244.36 7.29763C244.089 7.65333 243.895 8.06106 243.788 8.49536C243.682 8.92966 243.666 9.38122 243.742 9.82186C243.818 10.2625 243.984 10.6828 244.23 11.0564C244.475 11.4301 244.795 11.7491 245.17 11.9936C273.197 30.6152 289.495 65.4825 280.621 103.158C273.207 134.647 247.946 158.939 216.26 165.423C187.967 171.212 161.454 162.878 142.473 146.183C142.139 145.885 141.747 145.659 141.322 145.519C140.897 145.38 140.448 145.329 140.003 145.371C139.557 145.412 139.125 145.545 138.733 145.761C138.341 145.977 137.998 146.271 137.725 146.625V146.625C137.224 147.277 136.989 148.095 137.068 148.913C137.146 149.731 137.532 150.489 138.147 151.034C153.726 164.783 173.55 172.773 194.309 173.671C246.127 175.943 289.719 134.142 289.55 82.2748C289.513 67.2671 285.769 52.5011 278.65 39.2892C271.531 26.0774 261.259 14.8289 248.745 6.54378C248.055 6.08845 247.218 5.91295 246.404 6.05299C245.589 6.19303 244.858 6.63808 244.36 7.29763V7.29763Z" fill="black"/>
<path d="M198.365 157.421C239.701 157.421 273.211 123.912 273.211 82.5757C273.211 41.2395 239.701 7.72998 198.365 7.72998C157.029 7.72998 123.519 41.2395 123.519 82.5757C123.519 123.912 157.029 157.421 198.365 157.421Z" fill="white"/>
<path d="M134.16 82.5722C134.158 94.63 137.551 106.445 143.95 116.664C150.349 126.884 159.496 135.096 170.345 140.359L139.717 56.4432C136.046 64.6648 134.153 73.5685 134.16 82.5722V82.5722Z" fill="black"/>
<path d="M241.708 79.3356C241.708 71.3994 238.859 65.9046 236.414 61.627C233.16 56.3362 230.11 51.858 230.11 46.5707C230.11 40.6678 234.584 35.1592 240.892 35.1592C241.175 35.1592 241.445 35.1937 241.722 35.211C234.865 28.9334 226.727 24.2199 217.87 21.3963C209.013 18.5726 199.649 17.7064 190.424 18.8573C181.199 20.0083 172.335 23.149 164.443 28.0623C156.551 32.9756 149.821 39.5443 144.717 47.3142C146.225 47.3591 147.646 47.3902 148.849 47.3902C155.565 47.3902 165.963 46.5741 165.963 46.5741C169.421 46.3701 169.833 51.4534 166.375 51.8649C166.375 51.8649 162.896 52.273 159.026 52.477L182.406 122.022L196.456 79.8785L186.456 52.4701C182.997 52.2661 179.723 51.858 179.723 51.858C176.265 51.654 176.666 46.3667 180.127 46.5707C180.127 46.5707 190.73 47.3833 197.041 47.3833C203.753 47.3833 214.151 46.5707 214.151 46.5707C217.609 46.3667 218.02 51.45 214.562 51.858C214.562 51.858 211.077 52.2661 207.214 52.4701L230.418 121.492L236.822 100.091C239.595 91.2105 241.708 84.8304 241.708 79.3356Z" fill="black"/>
<path d="M199.493 88.1915L180.228 144.17C193.164 147.974 206.969 147.612 219.687 143.133C219.509 142.853 219.356 142.558 219.231 142.251L199.493 88.1915Z" fill="black"/>
<path d="M254.703 51.7681C254.995 53.9575 255.14 56.1641 255.136 58.3729C255.136 64.8879 253.918 72.2051 250.253 81.3688L230.642 138.081C245.108 129.666 255.717 115.937 260.211 99.8174C264.706 83.6973 262.729 66.4596 254.703 51.775V51.7681Z" fill="black"/>
<path d="M198.365 7.72998C157.097 7.72998 123.519 41.304 123.519 82.5722C123.519 123.84 157.097 157.418 198.365 157.418C239.633 157.418 273.214 123.844 273.214 82.5688C273.214 41.2937 239.633 7.72998 198.365 7.72998ZM198.365 154.005C158.988 154.005 126.95 121.966 126.95 82.5861C126.95 43.206 158.988 11.1776 198.365 11.1776C237.742 11.1776 269.773 43.2129 269.773 82.5861C269.773 121.959 237.738 153.991 198.365 153.991V154.005Z" fill="black"/>
<path d="M178.806 126.029C153.677 122.409 132.815 112.007 121.801 98.5864" stroke="white" stroke-width="1.2" stroke-linecap="round" stroke-linejoin="round"/>
<path d="M138.828 125.846C100.596 108.618 92.4351 81.0784 101.267 61.0079C103.819 55.2053 108.297 50.5819 114.214 47.1758" stroke="white" stroke-width="1.2" stroke-linecap="round" stroke-linejoin="round"/>
</svg>
